<mxfile host="Electron" modified="2024-09-03T14:48:14.803Z" agent="Mozilla/5.0 (Windows NT 10.0; Win64; x64) AppleWebKit/537.36 (KHTML, like Gecko) draw.io/24.6.1 Chrome/124.0.6367.207 Electron/30.0.6 Safari/537.36" etag="Lhd89CsAo90nCxOuoA-L" version="24.6.1" type="device">
  <diagram name="Página-1" id="EzjBtwV5EoNzy6wuJSAa">
    <mxGraphModel dx="2314" dy="884" grid="1" gridSize="10" guides="1" tooltips="1" connect="1" arrows="1" fold="1" page="1" pageScale="1" pageWidth="827" pageHeight="1169" math="0" shadow="0">
      <root>
        <mxCell id="0" />
        <mxCell id="1" parent="0" />
        <mxCell id="VEq4ZGdBFsKQbuEJIZ6L-36" value="" style="endArrow=classic;html=1;rounded=0;exitX=0.5;exitY=1;exitDx=0;exitDy=0;entryX=0.5;entryY=0;entryDx=0;entryDy=0;" parent="1" source="VEq4ZGdBFsKQbuEJIZ6L-33" target="VEq4ZGdBFsKQbuEJIZ6L-9" edge="1">
          <mxGeometry width="50" height="50" relative="1" as="geometry">
            <mxPoint x="-20" y="450" as="sourcePoint" />
            <mxPoint x="30" y="400" as="targetPoint" />
            <Array as="points">
              <mxPoint x="595" y="420" />
              <mxPoint x="560" y="420" />
            </Array>
          </mxGeometry>
        </mxCell>
        <mxCell id="VEq4ZGdBFsKQbuEJIZ6L-30" value="" style="endArrow=classic;html=1;rounded=0;exitX=0.5;exitY=1;exitDx=0;exitDy=0;entryX=0.5;entryY=0;entryDx=0;entryDy=0;" parent="1" source="VEq4ZGdBFsKQbuEJIZ6L-22" target="VEq4ZGdBFsKQbuEJIZ6L-26" edge="1">
          <mxGeometry width="50" height="50" relative="1" as="geometry">
            <mxPoint x="20" y="470" as="sourcePoint" />
            <mxPoint x="70" y="420" as="targetPoint" />
          </mxGeometry>
        </mxCell>
        <mxCell id="VEq4ZGdBFsKQbuEJIZ6L-19" value="" style="endArrow=classic;html=1;rounded=0;exitX=0.5;exitY=1;exitDx=0;exitDy=0;entryX=0.5;entryY=0;entryDx=0;entryDy=0;" parent="1" source="VEq4ZGdBFsKQbuEJIZ6L-17" target="VEq4ZGdBFsKQbuEJIZ6L-5" edge="1">
          <mxGeometry width="50" height="50" relative="1" as="geometry">
            <mxPoint x="120" y="540" as="sourcePoint" />
            <mxPoint x="170" y="490" as="targetPoint" />
            <Array as="points">
              <mxPoint x="215" y="410" />
              <mxPoint x="275" y="410" />
            </Array>
          </mxGeometry>
        </mxCell>
        <mxCell id="VEq4ZGdBFsKQbuEJIZ6L-1" value="" style="html=1;verticalLabelPosition=bottom;align=center;labelBackgroundColor=#ffffff;verticalAlign=top;strokeWidth=2;strokeColor=#000000;shadow=0;dashed=0;shape=mxgraph.ios7.icons.data;" parent="1" vertex="1">
          <mxGeometry x="397" y="620" width="34" height="40" as="geometry" />
        </mxCell>
        <mxCell id="VEq4ZGdBFsKQbuEJIZ6L-2" value="" style="swimlane;startSize=0;" parent="1" vertex="1">
          <mxGeometry x="140" y="150" width="560" height="280" as="geometry" />
        </mxCell>
        <mxCell id="VEq4ZGdBFsKQbuEJIZ6L-8" value="Frontend" style="text;html=1;align=center;verticalAlign=middle;whiteSpace=wrap;rounded=0;" parent="VEq4ZGdBFsKQbuEJIZ6L-2" vertex="1">
          <mxGeometry width="60" height="30" as="geometry" />
        </mxCell>
        <mxCell id="VEq4ZGdBFsKQbuEJIZ6L-13" value="Criar ou editar projeto/atividade/cliente" style="rounded=0;whiteSpace=wrap;html=1;" parent="VEq4ZGdBFsKQbuEJIZ6L-2" vertex="1">
          <mxGeometry x="10" y="27.5" width="130" height="60" as="geometry" />
        </mxCell>
        <mxCell id="VEq4ZGdBFsKQbuEJIZ6L-17" value="&lt;span style=&quot;color: rgb(0, 0, 0); font-family: Helvetica; font-size: 12px; font-style: normal; font-variant-ligatures: normal; font-variant-caps: normal; font-weight: 400; letter-spacing: normal; orphans: 2; text-align: center; text-indent: 0px; text-transform: none; widows: 2; word-spacing: 0px; -webkit-text-stroke-width: 0px; white-space: normal; background-color: rgb(251, 251, 251); text-decoration-thickness: initial; text-decoration-style: initial; text-decoration-color: initial; display: inline !important; float: none;&quot;&gt;Preencher dados no corpo da requisição&lt;/span&gt;" style="rounded=1;whiteSpace=wrap;html=1;" parent="VEq4ZGdBFsKQbuEJIZ6L-2" vertex="1">
          <mxGeometry x="35" y="112.5" width="80" height="60" as="geometry" />
        </mxCell>
        <mxCell id="VEq4ZGdBFsKQbuEJIZ6L-21" value="Excluir projeto/atividade/cliente" style="rounded=0;whiteSpace=wrap;html=1;" parent="VEq4ZGdBFsKQbuEJIZ6L-2" vertex="1">
          <mxGeometry x="209" y="27.5" width="130" height="60" as="geometry" />
        </mxCell>
        <mxCell id="VEq4ZGdBFsKQbuEJIZ6L-22" value="Indicar qual dado excluir a partir do id no endpoint" style="rounded=1;whiteSpace=wrap;html=1;" parent="VEq4ZGdBFsKQbuEJIZ6L-2" vertex="1">
          <mxGeometry x="229" y="112.5" width="90" height="60" as="geometry" />
        </mxCell>
        <mxCell id="VEq4ZGdBFsKQbuEJIZ6L-23" value="POST/PUT" style="rhombus;whiteSpace=wrap;html=1;" parent="VEq4ZGdBFsKQbuEJIZ6L-2" vertex="1">
          <mxGeometry x="40" y="182.5" width="70" height="70" as="geometry" />
        </mxCell>
        <mxCell id="VEq4ZGdBFsKQbuEJIZ6L-28" value="" style="endArrow=classic;html=1;rounded=0;exitX=0.5;exitY=1;exitDx=0;exitDy=0;entryX=0.5;entryY=0;entryDx=0;entryDy=0;" parent="VEq4ZGdBFsKQbuEJIZ6L-2" source="VEq4ZGdBFsKQbuEJIZ6L-13" target="VEq4ZGdBFsKQbuEJIZ6L-17" edge="1">
          <mxGeometry width="50" height="50" relative="1" as="geometry">
            <mxPoint x="-80" y="207.5" as="sourcePoint" />
            <mxPoint x="-30" y="157.5" as="targetPoint" />
          </mxGeometry>
        </mxCell>
        <mxCell id="VEq4ZGdBFsKQbuEJIZ6L-29" value="" style="endArrow=classic;html=1;rounded=0;exitX=0.5;exitY=1;exitDx=0;exitDy=0;entryX=0.5;entryY=0;entryDx=0;entryDy=0;" parent="VEq4ZGdBFsKQbuEJIZ6L-2" source="VEq4ZGdBFsKQbuEJIZ6L-21" target="VEq4ZGdBFsKQbuEJIZ6L-22" edge="1">
          <mxGeometry width="50" height="50" relative="1" as="geometry">
            <mxPoint x="-150" y="187.5" as="sourcePoint" />
            <mxPoint x="-100" y="137.5" as="targetPoint" />
          </mxGeometry>
        </mxCell>
        <mxCell id="VEq4ZGdBFsKQbuEJIZ6L-24" value="DELETE" style="rhombus;whiteSpace=wrap;html=1;" parent="VEq4ZGdBFsKQbuEJIZ6L-2" vertex="1">
          <mxGeometry x="239" y="182.5" width="70" height="70" as="geometry" />
        </mxCell>
        <mxCell id="VEq4ZGdBFsKQbuEJIZ6L-32" value="Buscar projeto/atividade/cliente" style="rounded=0;whiteSpace=wrap;html=1;" parent="VEq4ZGdBFsKQbuEJIZ6L-2" vertex="1">
          <mxGeometry x="390" y="27.5" width="130" height="60" as="geometry" />
        </mxCell>
        <mxCell id="VEq4ZGdBFsKQbuEJIZ6L-33" value="Indicar qual dado retornar a partir do id no endpoint" style="rounded=1;whiteSpace=wrap;html=1;" parent="VEq4ZGdBFsKQbuEJIZ6L-2" vertex="1">
          <mxGeometry x="410" y="112.5" width="90" height="60" as="geometry" />
        </mxCell>
        <mxCell id="VEq4ZGdBFsKQbuEJIZ6L-34" value="GET" style="rhombus;whiteSpace=wrap;html=1;" parent="VEq4ZGdBFsKQbuEJIZ6L-2" vertex="1">
          <mxGeometry x="420" y="182.5" width="70" height="70" as="geometry" />
        </mxCell>
        <mxCell id="VEq4ZGdBFsKQbuEJIZ6L-35" value="" style="endArrow=classic;html=1;rounded=0;exitX=0.5;exitY=1;exitDx=0;exitDy=0;entryX=0.5;entryY=0;entryDx=0;entryDy=0;" parent="VEq4ZGdBFsKQbuEJIZ6L-2" source="VEq4ZGdBFsKQbuEJIZ6L-32" target="VEq4ZGdBFsKQbuEJIZ6L-33" edge="1">
          <mxGeometry width="50" height="50" relative="1" as="geometry">
            <mxPoint x="-50" y="387.5" as="sourcePoint" />
            <mxPoint y="337.5" as="targetPoint" />
          </mxGeometry>
        </mxCell>
        <mxCell id="VEq4ZGdBFsKQbuEJIZ6L-3" value="" style="swimlane;startSize=0;" parent="1" vertex="1">
          <mxGeometry x="210" y="430" width="410" height="120" as="geometry" />
        </mxCell>
        <mxCell id="VEq4ZGdBFsKQbuEJIZ6L-5" value="Validar e processar" style="rounded=1;whiteSpace=wrap;html=1;" parent="VEq4ZGdBFsKQbuEJIZ6L-3" vertex="1">
          <mxGeometry x="20" y="30" width="90" height="60" as="geometry" />
        </mxCell>
        <mxCell id="VEq4ZGdBFsKQbuEJIZ6L-7" value="Backend" style="text;html=1;align=center;verticalAlign=middle;whiteSpace=wrap;rounded=0;" parent="VEq4ZGdBFsKQbuEJIZ6L-3" vertex="1">
          <mxGeometry width="60" height="30" as="geometry" />
        </mxCell>
        <mxCell id="VEq4ZGdBFsKQbuEJIZ6L-9" value="Buscar e formatar os dados" style="rounded=1;whiteSpace=wrap;html=1;" parent="VEq4ZGdBFsKQbuEJIZ6L-3" vertex="1">
          <mxGeometry x="310" y="30" width="80" height="60" as="geometry" />
        </mxCell>
        <mxCell id="VEq4ZGdBFsKQbuEJIZ6L-26" value="Verificar a existência e relações do que for solicitado a exclusão" style="rounded=1;whiteSpace=wrap;html=1;" parent="VEq4ZGdBFsKQbuEJIZ6L-3" vertex="1">
          <mxGeometry x="159" y="25" width="90" height="70" as="geometry" />
        </mxCell>
        <mxCell id="VEq4ZGdBFsKQbuEJIZ6L-6" value="" style="endArrow=classic;html=1;rounded=0;exitX=0.5;exitY=1;exitDx=0;exitDy=0;" parent="1" source="VEq4ZGdBFsKQbuEJIZ6L-5" edge="1">
          <mxGeometry width="50" height="50" relative="1" as="geometry">
            <mxPoint x="240" y="640" as="sourcePoint" />
            <mxPoint x="380" y="640" as="targetPoint" />
            <Array as="points">
              <mxPoint x="275" y="640" />
            </Array>
          </mxGeometry>
        </mxCell>
        <mxCell id="VEq4ZGdBFsKQbuEJIZ6L-10" value="" style="endArrow=classic;startArrow=classic;html=1;rounded=0;entryX=0.5;entryY=1;entryDx=0;entryDy=0;" parent="1" edge="1">
          <mxGeometry width="50" height="50" relative="1" as="geometry">
            <mxPoint x="450" y="640" as="sourcePoint" />
            <mxPoint x="560" y="520" as="targetPoint" />
            <Array as="points">
              <mxPoint x="560" y="640" />
              <mxPoint x="560" y="590" />
            </Array>
          </mxGeometry>
        </mxCell>
        <mxCell id="VEq4ZGdBFsKQbuEJIZ6L-37" value="" style="endArrow=classic;html=1;rounded=0;exitX=0.5;exitY=1;exitDx=0;exitDy=0;" parent="1" source="VEq4ZGdBFsKQbuEJIZ6L-26" edge="1">
          <mxGeometry width="50" height="50" relative="1" as="geometry">
            <mxPoint x="160" y="650" as="sourcePoint" />
            <mxPoint x="414" y="600" as="targetPoint" />
          </mxGeometry>
        </mxCell>
        <mxCell id="VEq4ZGdBFsKQbuEJIZ6L-38" value="" style="sketch=0;pointerEvents=1;shadow=0;dashed=0;html=1;strokeColor=none;fillColor=#505050;labelPosition=center;verticalLabelPosition=bottom;verticalAlign=top;outlineConnect=0;align=center;shape=mxgraph.office.devices.tv;" parent="1" vertex="1">
          <mxGeometry x="350.5" y="30" width="108" height="90" as="geometry" />
        </mxCell>
        <mxCell id="VEq4ZGdBFsKQbuEJIZ6L-39" value="Tela do Usuário" style="text;html=1;align=center;verticalAlign=middle;whiteSpace=wrap;rounded=0;" parent="1" vertex="1">
          <mxGeometry x="359" width="91" height="30" as="geometry" />
        </mxCell>
        <mxCell id="VEq4ZGdBFsKQbuEJIZ6L-40" value="Database" style="text;html=1;align=center;verticalAlign=middle;whiteSpace=wrap;rounded=0;" parent="1" vertex="1">
          <mxGeometry x="384" y="670" width="60" height="30" as="geometry" />
        </mxCell>
        <mxCell id="VEq4ZGdBFsKQbuEJIZ6L-41" value="" style="endArrow=classic;html=1;rounded=0;entryX=0.5;entryY=0;entryDx=0;entryDy=0;" parent="1" target="VEq4ZGdBFsKQbuEJIZ6L-13" edge="1">
          <mxGeometry width="50" height="50" relative="1" as="geometry">
            <mxPoint x="340" y="70" as="sourcePoint" />
            <mxPoint x="250" y="60" as="targetPoint" />
            <Array as="points">
              <mxPoint x="215" y="70" />
            </Array>
          </mxGeometry>
        </mxCell>
        <mxCell id="VEq4ZGdBFsKQbuEJIZ6L-42" value="" style="endArrow=classic;html=1;rounded=0;entryX=0.465;entryY=-0.015;entryDx=0;entryDy=0;entryPerimeter=0;" parent="1" target="VEq4ZGdBFsKQbuEJIZ6L-21" edge="1">
          <mxGeometry width="50" height="50" relative="1" as="geometry">
            <mxPoint x="410" y="130" as="sourcePoint" />
            <mxPoint x="210" y="80" as="targetPoint" />
          </mxGeometry>
        </mxCell>
        <mxCell id="VEq4ZGdBFsKQbuEJIZ6L-45" value="" style="endArrow=classic;html=1;rounded=0;exitX=0;exitY=0.5;exitDx=0;exitDy=0;" parent="1" source="VEq4ZGdBFsKQbuEJIZ6L-9" edge="1">
          <mxGeometry width="50" height="50" relative="1" as="geometry">
            <mxPoint x="50" y="520" as="sourcePoint" />
            <mxPoint x="470" y="70" as="targetPoint" />
            <Array as="points">
              <mxPoint x="500" y="490" />
              <mxPoint x="500" y="70" />
            </Array>
          </mxGeometry>
        </mxCell>
        <mxCell id="cB0tMujEXzPnkBG8sYKw-1" value="" style="endArrow=classic;html=1;rounded=0;entryX=0.5;entryY=0;entryDx=0;entryDy=0;" edge="1" parent="1" target="VEq4ZGdBFsKQbuEJIZ6L-32">
          <mxGeometry width="50" height="50" relative="1" as="geometry">
            <mxPoint x="470" y="50" as="sourcePoint" />
            <mxPoint x="660" y="60" as="targetPoint" />
            <Array as="points">
              <mxPoint x="595" y="50" />
            </Array>
          </mxGeometry>
        </mxCell>
      </root>
    </mxGraphModel>
  </diagram>
</mxfile>
